<mxfile host="app.diagrams.net" modified="2023-04-17T01:52:16.758Z" agent="Mozilla/5.0 (Windows NT 10.0; Win64; x64) AppleWebKit/537.36 (KHTML, like Gecko) Chrome/111.0.0.0 Safari/537.36" version="21.1.8" etag="wu6W6qridRos5I4JtycT" type="github">
  <diagram name="Page-1" id="gZtj8Z37KTe2b4Y7oLLw">
    <mxGraphModel>
      <root>
        <mxCell id="0" />
        <mxCell id="1" parent="0" />
      </root>
    </mxGraphModel>
  </diagram>
</mxfile>
